#!OML:ASF F:\VICON\USERDATA\INSTALL\rory3\rory3.ASF
:FULLY-SPECIFIED
:DEGREES
18
root 0.3616090000000005 17.8699 -20.576999999999963 -2.57157 3.3328900000000097 -0.9144389999999976
lfemur 11.306099999999967 -3.4306000000000005 -22.707800000000006
ltibia 32.2907
lfoot -6.98736 -8.770309999999988
ltoes -20.371400000000015
rfemur -25.162699999999973 1.42978 24.443799999999996
rtibia 26.928199999999997
rfoot -4.0243400000000005 -6.86872
rtoes 0.37212899999999793
lowerback nan -1.5697400000000021 -2.8293600000000056
upperback -0.22856999999999977 -2.2875499999999986 2.57944
thorax -6.12859 -0.9949909999999972 4.682099999999997
lowerneck -15.024499999999996 -2.5323699999999976 -2.13706
upperneck 22.2184 -2.990779999999998 -0.07704819999999679
head 9.53106 -1.5841499999999997 -0.04494199999999973
lclavicle 1.0312000000000066e-15 1.749309999999998e-14
lhumerus -24.407500000000006 1.4782200000000012 83.6559
lradius 28.397399999999998
lwrist 6.045959999999999
lhand -33.172900000000006 14.804400000000003
lfingers nan
lthumb -6.381129999999992 44.688199999999995
rclavicle 1.0312000000000066e-15 1.749309999999998e-14
rhumerus -41.16769999999998 -33.0882 -66.0153
rradius 17.95760000000002
rwrist 15.411599999999991
rhand -18.1349 nan
rfingers nan
rthumb 8.14012 -8.074
19
root 0.3256700000000005 17.9489 -19.96580000000005 -2.93812 2.7384600000000034 -1.0951999999999997
lfemur 8.930350000000027 -2.0134400000000006 -21.6371
ltibia 38.5048
lfoot 2.050310000000014 -12.79949999999999
ltoes -18.99279999999999
rfemur -23.434100000000008 1.4074800000000012 25.124000000000002
rtibia 28.574799999999975
rfoot -5.354159999999997 -7.208759999999997
rtoes 6.398809999999995
lowerback nan -1.1643799999999982 -2.339010000000007
upperback 0.19621399999999994 -1.700219999999996 2.2386599999999994
thorax -5.478009999999999 -0.747145 3.92133
lowerneck -15.8929 -2.8221 -1.6490399999999994
upperneck 22.5007 -3.5077800000000012 -0.06863979999999703
head 9.78886 -1.77785 -0.20512900000000098
lclavicle 9.790140000000008e-15 -1.192709999999999e-14
lhumerus -25.088600000000007 1.2777899999999986 83.8047
lradius 28.68
lwrist 6.489220000000001
lhand -32.29879999999999 20.0955
lfingers nan
lthumb -5.537260000000002 50.0031
rclavicle 9.790140000000008e-15 -1.192709999999999e-14
rhumerus -41.372499999999995 -34.59699999999998 -65.94180000000001
rradius 18.056899999999974
rwrist 16.14390000000001
rhand -17.0292 nan
rfingers nan
rthumb 9.207190000000002 -7.12269
20
root 0.28447399999999967 18.0204 -19.386000000000024 -3.5479600000000007 2.765640000000003 -2.31696
lfemur 5.61053000000002 -1.276369999999999 -19.3021
ltibia 45.27240000000002
lfoot 11.50529999999998 -16.702800000000018
ltoes -18.30890000000001
rfemur -20.95330000000001 1.1917999999999993 26.9315
rtibia 28.62900000000002
rfoot -5.669820000000003 -7.215910000000001
rtoes 3.821410000000002
lowerback nan -1.3953900000000008 -1.6491599999999973
upperback 0.1785439999999997 -1.8858600000000025 2.9415900000000015
thorax -5.654870000000001 -0.8439029999999991 4.313020000000004
lowerneck -15.4074 -2.6866100000000004 -2.3028699999999995
upperneck 22.2774 -3.139150000000001 -0.13430400000000087
head 9.62779 -1.6723699999999995 -0.06206879999999951
lclavicle 1.7368799999999973e-14 -1.7095499999999978e-14
lhumerus -26.881900000000012 2.698740000000001 84.3401
lradius 29.3434
lwrist 6.687669999999999
lhand -32.2387 21.073199999999996
lfingers nan
lthumb -5.479170000000003 50.9824
rclavicle 1.7368799999999973e-14 -1.7095499999999978e-14
rhumerus -40.17210000000001 -31.062699999999978 -67.9886
rradius 18.857300000000002
rwrist 13.450800000000005
rhand -17.4316 nan
rfingers nan
rthumb 8.81887 -8.344780000000004
21
root 0.30404177388778464 17.981267488410786 -1.3542104253856948 -1.3764931929286492 -2.1047843623812117 -7.437361474746272
lfemur -4.843890021370703 -0.9042852041888305 -12.149913549196462
ltibia 56.10651814436742
lfoot 3.982313362205339 -6.823990354830396
ltoes -10.915941305318833
rfemur -7.832219446286633 3.206334165019911 32.71517190775841
rtibia 19.98869439644859
rfoot -7.8630682469009345 -10.501187643724059
rtoes 8.158858780849796
lowerback nan 0.2228224356119993 3.5879488056497744
upperback 0.07829920520715307 1.3004951908203444 2.6916652721692076
thorax -6.464853879692206 0.5411674250017253 1.2019920408471
lowerneck -16.22115832081501 -2.9634482246718497 -1.5361605943214522
upperneck 22.69947531086151 -3.8154084001859117 0.027920914079397452
head 10.055990695147653 -1.9023688429667567 -0.1582649173587781
lclavicle -2.5375224008147677e-15 -2.7482939680429824e-15
lhumerus -29.547584710999473 -0.3732006544919071 84.27755855234221
lradius 25.62424337388498
lwrist 9.26883847389411
lhand -29.847318441137634 18.725795352041064
lfingers nan
lthumb -3.3944872174148433 48.12745465817931
rclavicle -2.552826684384482e-15 -2.7598314241543355e-15
rhumerus -36.45575689787937 -31.14505337142048 -70.33443203507203
rradius 20.039333027035923
rwrist 7.314599874660972
rhand -17.446435823239703 nan
rfingers nan
rthumb 8.692054992447375 -7.4248591461279805
22
root 0.30905417447758876 17.969747052565555 -2.635446939454921 -1.4075750637879145 -4.556678685595049 -6.2313466766397045
lfemur -8.912269903521471 0.34866986552798407 -10.707634514179313
ltibia 62.399151943746304
lfoot 1.020109061034546 -2.322449817213628
ltoes -14.376148529300664
rfemur -4.8664455385398515 5.402522630719664 32.66496204344879
rtibia 14.566291088743025
rfoot -7.576388193263422 -11.420082779102522
rtoes 9.582487033662382
lowerback nan 0.61041726486228 2.1400546392043296
upperback 0.22586543548806715 1.5422916322754747 2.4442586280561023
thorax -6.424125831331404 0.7007094593029805 0.8199224089172308
lowerneck -16.77649969432782 -3.162297288666451 -1.0606269893628228
upperneck 22.253680024723334 -4.183229895301793 0.4438774492184987
head 9.91200586605365 -2.026917592371228 -0.09879966517744646
lclavicle -2.55445409962344e-15 -2.7682827558206287e-15
lhumerus -30.625992396705346 -0.26595301819470185 84.2215784081647
lradius 22.657284361643228
lwrist 10.295277187537234
lhand -29.672112075588114 16.307576801265192
lfingers nan
lthumb -3.0761079551835206 46.21579671555748
rclavicle -2.5421512839583666e-15 -2.7606790988541554e-15
rhumerus -33.63741612588072 -28.979409811664 -72.23091322593794
rradius 20.574360608978964
rwrist 5.533491033210682
rhand -17.798457942670773 nan
rfingers nan
rthumb 8.42192768812831 -6.819147879024881
23
root 0.3159131875944853 17.958347732105096 -2.8857248167289757 -1.5075287008597067 -5.129766210759169 -5.900936173242508
lfemur -12.043245618191326 1.3240976863976663 -9.564347320279971
ltibia 64.48984269604632
lfoot -0.07985205888287705 -3.115098484763845
ltoes -6.7924311893547005
rfemur -4.980548703910285 6.1500250972674655 33.39907585014072
rtibia 15.83875153354909
rfoot -5.111381622346208 -10.05683096620169
rtoes 9.280476991664855
lowerback nan 0.8571239719541692 2.0854716834407183
upperback 0.28256994275431746 1.8301669407009524 2.2806863536869737
thorax -6.458723800714809 0.8684170730841536 0.6817099750011708
lowerneck -16.802836243546214 -3.362233152699941 -1.0393455831130678
upperneck 21.317399918047418 -4.513172701905306 0.9903477043217237
head 9.513410121170143 -2.1314856449657498 0.07151243031591589
lclavicle -2.5811354487802045e-15 -2.7858403610900573e-15
lhumerus -31.447043207714483 -0.28781063596634615 84.11913447123432
lradius 21.00021433686043
lwrist 10.501806371582902
lhand -29.26758657681986 15.85182182392176
lfingers nan
lthumb -2.5893342726435793 45.85672746084584
rclavicle -2.5306104765896192e-15 -2.7550729595613916e-15
rhumerus -31.22138757537381 -26.410378376704656 -73.6044815254197
rradius 21.152442254312763
rwrist 9.370032110334217
rhand -17.894589823988397 nan
rfingers nan
rthumb 8.259651265220505 -6.215344688996665
24
root 0.3229331044802455 17.944507823734874 -1.8932425891316367 -1.6148555098731368 -5.1794901424113045 -6.039312813154167
lfemur -15.50227629555147 1.8406391007751246 -9.207111960234124
ltibia 64.1127650876137
lfoot -1.423073417524562 -2.7438717957828684
ltoes 0.437733627798214
rfemur -5.550623496057208 5.9162559684859355 33.67065001364163
rtibia 18.449247344657177
rfoot -1.1595202984700226 -6.995403797152273
rtoes 9.228047458696608
lowerback nan 1.2171888196923035 2.4738852941690954
upperback 0.12538053598897408 2.2752298173794747 1.971958519822052
thorax -6.377022575909258 1.068894354460999 -0.2196438373927041
lowerneck -16.573243031294137 -3.5473472953602516 -1.0065382829906997
upperneck 21.16825001544291 -4.901180071156314 1.1965472234556844
head 9.361575025210646 -2.272543047044528 0.06421120098575459
lclavicle -2.5456661338998156e-15 -2.7654436883890608e-15
lhumerus -32.77534172967097 2.3894347985895035 83.98609248542252
lradius 20.999321096603175
lwrist 10.52368894252175
lhand -29.247911923029104 15.579802309439053
lfingers nan
lthumb -2.5602091160099 45.57001426765416
rclavicle -2.5078250976331645e-15 -2.742079782646173e-15
rhumerus -28.394845335293045 -23.095662584044085 -74.54686364276243
rradius 22.787056087114408
rwrist 11.206620720092793
rhand -18.10035949744252 nan
rfingers nan
rthumb 8.10921021379005 -5.8691149292142475
25
root 0.32907758934944353 17.937861249456223 -1.8599943881779968 -1.5276610177832632 -5.023383892392875 -6.626601506869999
lfemur -19.204105960575056 1.920273594845769 -9.32888169345574
ltibia 62.100689623821765
lfoot -2.9066641988559736 -1.598715784032463
ltoes -4.283658588325242
rfemur -5.209959643850787 5.647586084175791 34.159107927588956
rtibia 20.852012537745033
rfoot 0.26567848606812383 -6.376642911732826
rtoes 10.606470896149098
lowerback nan 1.1021289074696532 2.8994235453405937
upperback 0.18255425102120887 2.209920625004267 2.1618446198944774
thorax -6.274724335526895 1.0743790429350553 -0.5300703320155113
lowerneck -16.369689643108998 -3.664211660051492 -1.1780030563366515
upperneck 20.935687768899115 -5.1078174831931635 1.391739599326453
head 9.270652670711748 -2.3209593538884294 0.12185149053809512
lclavicle -2.566470168609728e-15 -2.7803213530425532e-15
lhumerus -34.14214969302493 4.6670356332966945 83.52416283579797
lradius 21.503132763135113
lwrist 10.854731171089126
lhand -29.19937856828448 16.1186240768856
lfingers nan
lthumb -2.3934697203054696 46.33892019006717
rclavicle -2.5274357110197284e-15 -2.755520204134638e-15
rhumerus -26.325367556724654 -20.67074315726283 -74.42902147788205
rradius 24.96062255621222
rwrist 7.372652795853666
rhand -18.258789066921683 nan
rfingers nan
rthumb 8.087349066726613 -5.174905380585241
